Coordinates
version=1
nRows=12
nColumns=24
inDegrees=yes

Units are S.I. units (second, meters, Newtons, ...)
Angles are in degrees.

endheader
time	pelvis_tilt	pelvis_list	pelvis_rotation	pelvis_tx	pelvis_ty	pelvis_tz	hip_flexion_r	hip_adduction_r	hip_rotation_r	knee_angle_r	ankle_angle_r	subtalar_angle_r	mtp_angle_r	hip_flexion_l	hip_adduction_l	hip_rotation_l	knee_angle_l	ankle_angle_l	subtalar_angle_l	mtp_angle_l	lumbar_extension	lumbar_bending	lumbar_rotation
      1.28400000	     -2.92533048	      3.13122860	     -6.42836454	      0.27496963	      1.06539627	      0.33838817	     18.11242602	     -6.39238385	     -3.09377316	    -71.76826683	     -2.30008462	     -6.23151125	      5.91969822	     14.74048798	      4.77274434	     -0.56510009	    -18.34949585	      9.32205911	      1.09851812	     -0.20150503	    -10.30259746	     -4.31019911	      1.88781042
      1.28816667	     -2.86458350	      3.01867636	     -6.37502944	      0.28002779	      1.06657676	      0.33824600	     18.55762671	     -6.24906503	     -3.19254517	    -71.57940429	     -1.92926034	     -6.10917109	      5.88965138	     14.15668952	      4.71367173	     -0.46875377	    -17.92533978	      9.37272904	      1.13615025	     -0.19604642	    -10.42607479	     -4.12944420	      1.61745594
      1.29233333	     -2.84012065	      2.91085593	     -6.31596739	      0.28509759	      1.06766437	      0.33811765	     19.03131178	     -6.10430237	     -3.29665187	    -71.33935214	     -1.55600749	     -5.98806899	      5.87157431	     13.61439889	      4.65016920	     -0.38891745	    -17.50507667	      9.40467479	      1.17966334	     -0.18998605	    -10.48616453	     -3.96826764	      1.43120392
      1.29650000	     -2.80622184	      2.79750085	     -6.25022365	      0.29015610	      1.06874821	      0.33798787	     19.48003147	     -5.95358018	     -3.40984778	    -71.04458385	     -1.17539913	     -5.80779655	      5.86481799	     13.05913375	      4.58142216	     -0.30518603	    -17.07635837	      9.43622005	      1.22739419	     -0.18319033	    -10.55944462	     -3.79942095	      1.25353365
      1.30066667	     -2.78644822	      2.69235496	     -6.17488833	      0.29520249	      1.06976066	      0.33784451	     19.93561190	     -5.81214654	     -3.52792701	    -70.70695881	     -0.78308331	     -5.58409583	      5.86429629	     12.51992413	      4.52110657	     -0.20618778	    -16.64376679	      9.45679543	      1.26448621	     -0.17367329	    -10.61485915	     -3.64337655	      1.04566740
      1.30483333	     -2.75371160	      2.57061078	     -6.09239846	      0.30023683	      1.07078872	      0.33769966	     20.35839708	     -5.65351121	     -3.66005471	    -70.30859613	     -0.39491848	     -5.32111832	      5.87438291	     11.96592507	      4.44249949	     -0.10716597	    -16.21096805	      9.48331004	      1.31349886	     -0.16367466	    -10.68699319	     -3.46021579	      0.86830965
      1.30900000	     -2.73298638	      2.47191729	     -6.00397389	      0.30525550	      1.07173341	      0.33755550	     20.79150711	     -5.52012342	     -3.79189190	    -69.87844221	      0.01713736	     -5.02568959	      5.89562225	     11.42426151	      4.38796376	      0.00902410	    -15.76506753	      9.47502384	      1.33215014	     -0.14961505	    -10.74299872	     -3.31017257	      0.64554146
      1.31316667	     -2.70607825	      2.34857369	     -5.90901225	      0.31026270	      1.07266953	      0.33739256	     21.19752909	     -5.36223761	     -3.93702086	    -69.38592355	      0.40779996	     -4.68395558	      5.92200016	     10.88090126	      4.30503881	      0.11469544	    -15.33501966	      9.51646276	      1.38922659	     -0.13734640	    -10.81034915	     -3.12042852	      0.48808521
      1.31733333	     -2.69635875	      2.25085101	     -5.81034816	      0.31526471	      1.07351229	      0.33723713	     21.61989128	     -5.23099311	     -4.08050621	    -68.86472710	      0.81924509	     -4.32179245	      5.95677625	     10.35566853	      4.24736893	      0.22982587	    -14.89467059	      9.52869688	      1.42329489	     -0.12468780	    -10.84976874	     -2.96366078	      0.29274905
      1.32150000	     -2.66593275	      2.15393642	     -5.70722436	      0.32024284	      1.07435772	      0.33708911	     22.00731548	     -5.10309852	     -4.23004069	    -68.29581504	      1.23405189	     -3.95925303	      6.01073297	      9.80479666	      4.19185091	      0.36566637	    -14.43989853	      9.50432807	      1.42097887	     -0.10557870	    -10.92027452	     -2.80717660	      0.06163037
      1.32566667	     -2.65082545	      2.04393173	     -5.60000265	      0.32523262	      1.07513923	      0.33693026	     22.39430333	     -4.96000307	     -4.38680676	    -67.67527291	      1.62520244	     -3.56750575	      6.05362308	      9.27885449	      4.11722404	      0.48025230	    -14.00990166	      9.54696939	      1.47553160	     -0.09190445	    -10.96722948	     -2.63562576	     -0.08442193
      1.32983333	     -2.64275279	      1.94159005	     -5.48826450	      0.33020549	      1.07585142	      0.33677556	     22.77986508	     -4.82501518	     -4.54595491	    -67.01680089	      2.02535873	     -3.17255201	      6.10150576	      8.76268395	      4.04836552	      0.60112969	    -13.57747368	      9.56649051	      1.51249472	     -0.07809910	    -11.00937364	     -2.47349411	     -0.26735769
